<svg width="67" height="24" viewBox="0 0 67 24" fill="none" xmlns="http://www.w3.org/2000/svg">
<path d="M20.0001 8.00001L14.0001 2.74001C13.4501 2.24805 12.738 1.97607 12.0001 1.97607C11.2622 1.97607 10.5501 2.24805 10.0001 2.74001L4.00009 8.00001C3.68246 8.28408 3.42899 8.63256 3.25657 9.02225C3.08414 9.41194 2.99671 9.83389 3.00009 10.26V19C3.00009 19.7957 3.31617 20.5587 3.87877 21.1213C4.44138 21.6839 5.20445 22 6.00009 22H18.0001C18.7957 22 19.5588 21.6839 20.1214 21.1213C20.684 20.5587 21.0001 19.7957 21.0001 19V10.25C21.0021 9.82557 20.9139 9.40555 20.7416 9.01769C20.5692 8.62983 20.3165 8.28296 20.0001 8.00001ZM14.0001 20H10.0001V15C10.0001 14.7348 10.1055 14.4804 10.293 14.2929C10.4805 14.1054 10.7349 14 11.0001 14H13.0001C13.2653 14 13.5197 14.1054 13.7072 14.2929C13.8947 14.4804 14.0001 14.7348 14.0001 15V20ZM19.0001 19C19.0001 19.2652 18.8947 19.5196 18.7072 19.7071C18.5197 19.8946 18.2653 20 18.0001 20H16.0001V15C16.0001 14.2044 15.684 13.4413 15.1214 12.8787C14.5588 12.3161 13.7957 12 13.0001 12H11.0001C10.2044 12 9.44138 12.3161 8.87877 12.8787C8.31616 13.4413 8.00009 14.2044 8.00009 15V20H6.00009C5.73488 20 5.48052 19.8946 5.29299 19.7071C5.10545 19.5196 5.00009 19.2652 5.00009 19V10.25C5.00027 10.108 5.03069 9.9677 5.08931 9.83839C5.14794 9.70907 5.23343 9.59372 5.3401 9.50001L11.3401 4.25001C11.5226 4.08969 11.7572 4.00127 12.0001 4.00127C12.243 4.00127 12.4776 4.08969 12.6601 4.25001L18.6601 9.50001C18.7668 9.59372 18.8523 9.70907 18.9109 9.83839C18.9695 9.9677 18.9999 10.108 19.0001 10.25V19Z" fill="#0070BA"/>
<path d="M39.8875 7.5V16.5H38.875V13.1625H34.0125V16.5H33V7.5H34.0125V12.1375H38.875V7.5H39.8875ZM44.6078 16.6875C44.1078 16.6875 43.6453 16.5958 43.2203 16.4125C42.7953 16.2208 42.437 15.9458 42.1453 15.5875C41.637 14.9458 41.3828 14.1208 41.3828 13.1125C41.3828 12.1125 41.637 11.2958 42.1453 10.6625C42.4286 10.3125 42.787 10.0417 43.2203 9.85C43.6536 9.65833 44.1161 9.5625 44.6078 9.5625C45.0995 9.5625 45.5578 9.65833 45.9828 9.85C46.4161 10.0333 46.7745 10.3042 47.0578 10.6625C47.5745 11.2875 47.8328 12.1042 47.8328 13.1125C47.8328 14.1125 47.5745 14.9375 47.0578 15.5875C46.7745 15.9542 46.4203 16.2292 45.9953 16.4125C45.5786 16.5958 45.1161 16.6875 44.6078 16.6875ZM46.2578 14.9625C46.5911 14.5208 46.7578 13.9042 46.7578 13.1125C46.7578 12.3292 46.5911 11.7167 46.2578 11.275C46.0745 11.0333 45.837 10.85 45.5453 10.725C45.2536 10.5917 44.9411 10.525 44.6078 10.525C44.2745 10.525 43.962 10.5917 43.6703 10.725C43.3786 10.85 43.1453 11.0333 42.9703 11.275C42.6286 11.7167 42.4578 12.3292 42.4578 13.1125C42.4578 13.9042 42.6286 14.5208 42.9703 14.9625C43.1453 15.2042 43.3786 15.3917 43.6703 15.525C43.962 15.6583 44.2745 15.725 44.6078 15.725C44.9411 15.725 45.2536 15.6583 45.5453 15.525C45.837 15.3917 46.0745 15.2042 46.2578 14.9625ZM57.4984 10.2625C57.8318 10.5292 58.0443 10.8333 58.1359 11.175C58.2359 11.5083 58.2859 11.9542 58.2859 12.5125V16.5H57.2734V12.5125C57.2734 12.1208 57.2401 11.8208 57.1734 11.6125C57.1151 11.4042 56.9776 11.2042 56.7609 11.0125C56.4943 10.7708 56.1734 10.65 55.7984 10.65C55.5568 10.65 55.3318 10.6958 55.1234 10.7875C54.9234 10.8792 54.7526 11.0125 54.6109 11.1875C54.4693 11.3625 54.3734 11.5417 54.3234 11.725C54.2818 11.9 54.2609 12.1083 54.2609 12.35V12.5125L54.2484 16.5H53.2484V12.5125C53.2484 12.1208 53.2151 11.8208 53.1484 11.6125C53.0901 11.4042 52.9484 11.2042 52.7234 11.0125C52.4651 10.7708 52.1443 10.65 51.7609 10.65C51.5276 10.65 51.3068 10.6958 51.0984 10.7875C50.8901 10.8792 50.7193 11.0125 50.5859 11.1875C50.4443 11.3625 50.3484 11.5417 50.2984 11.725C50.2568 11.9 50.2359 12.1083 50.2359 12.35V16.5H49.2109V9.75H50.1234V10.65C50.3401 10.3583 50.6151 10.1333 50.9484 9.975C51.2818 9.81667 51.6359 9.7375 52.0109 9.7375C52.2609 9.7375 52.5151 9.78333 52.7734 9.875C53.0401 9.96667 53.2734 10.0958 53.4734 10.2625C53.6901 10.4458 53.8651 10.6583 53.9984 10.9C54.0151 10.8583 54.0484 10.8042 54.0984 10.7375C54.3068 10.4208 54.5818 10.175 54.9234 10C55.2734 9.825 55.6443 9.7375 56.0359 9.7375C56.2943 9.7375 56.5484 9.78333 56.7984 9.875C57.0568 9.96667 57.2901 10.0958 57.4984 10.2625ZM60.5063 13.4C60.5313 14.05 60.6938 14.5708 60.9938 14.9625C61.1688 15.2042 61.4021 15.3917 61.6938 15.525C61.9854 15.6583 62.2979 15.725 62.6313 15.725C62.9646 15.725 63.2729 15.6583 63.5563 15.525C63.8479 15.3917 64.0854 15.2042 64.2688 14.9625C64.3438 14.8625 64.4146 14.7417 64.4813 14.6L65.4813 15.0375C65.3646 15.2542 65.2396 15.4417 65.1063 15.6C64.8229 15.95 64.4688 16.2208 64.0438 16.4125C63.6271 16.5958 63.1854 16.6875 62.7188 16.6875C62.2021 16.6875 61.7188 16.5958 61.2688 16.4125C60.8271 16.2292 60.4604 15.9542 60.1688 15.5875C59.6604 14.9458 59.4063 14.125 59.4063 13.125C59.4229 12.1083 59.6771 11.2875 60.1688 10.6625C60.4604 10.3042 60.8188 10.0333 61.2438 9.85C61.6688 9.65833 62.1313 9.5625 62.6313 9.5625C63.1313 9.5625 63.5896 9.65833 64.0063 9.85C64.4313 10.0333 64.7896 10.3042 65.0813 10.6625C65.5896 11.3042 65.8438 12.125 65.8438 13.125C65.8438 13.25 65.8396 13.3417 65.8313 13.4H60.5063ZM62.6313 10.525C62.2979 10.525 61.9854 10.5917 61.6938 10.725C61.4021 10.8583 61.1688 11.0458 60.9938 11.2875C60.7438 11.6292 60.5896 12.05 60.5313 12.55H64.7313C64.6729 12.05 64.5188 11.6292 64.2688 11.2875C64.0854 11.0458 63.8479 10.8583 63.5563 10.725C63.2729 10.5917 62.9646 10.525 62.6313 10.525Z" fill="#0070BA"/>
</svg>
