<svg width="21" height="20" viewBox="0 0 21 20" fill="none" xmlns="http://www.w3.org/2000/svg">
<path fill-rule="evenodd" clip-rule="evenodd" d="M13.738 7.51627C14.5697 8.02966 14.9855 8.28636 15.0584 8.73772C15.1313 9.18908 14.8414 9.53496 14.2616 10.2267C13.1842 11.5121 11.8714 12.6998 10.5065 13.4999C9.15967 14.2894 7.78832 14.6861 6.32033 14.9075C5.42683 15.0423 4.98007 15.1097 4.63876 14.8372C4.29745 14.5646 4.26228 14.0854 4.19192 13.1271L3.59397 4.98222C3.46853 3.27352 3.40581 2.41917 3.92909 2.10157C4.45237 1.78397 5.18131 2.23396 6.63919 3.13395L13.738 7.51627ZM6.96731 9.63875C6.79873 9.63875 6.63394 9.68957 6.49377 9.78479C6.3536 9.88001 6.24435 10.0153 6.17983 10.1737C6.11532 10.332 6.09844 10.5063 6.13133 10.6744C6.16422 10.8425 6.2454 10.9969 6.3646 11.1181C6.48381 11.2393 6.63568 11.3218 6.80103 11.3552C6.96637 11.3887 7.13775 11.3715 7.2935 11.3059C7.44925 11.2403 7.58237 11.1293 7.67603 10.9868C7.76968 10.8442 7.81967 10.6767 7.81967 10.5053C7.81967 10.2755 7.72987 10.0551 7.57002 9.89256C7.41017 9.73005 7.19337 9.63875 6.96731 9.63875ZM6.96731 5.75653C6.79873 5.75653 6.63394 5.80735 6.49377 5.90257C6.3536 5.99779 6.24435 6.13313 6.17983 6.29148C6.11532 6.44982 6.09844 6.62406 6.13133 6.79215C6.16422 6.96025 6.2454 7.11466 6.3646 7.23585C6.48381 7.35704 6.63568 7.43958 6.80103 7.47301C6.96637 7.50645 7.13775 7.48929 7.2935 7.4237C7.44925 7.35811 7.58237 7.24704 7.67603 7.10454C7.76968 6.96203 7.81967 6.79449 7.81967 6.6231C7.81967 6.39327 7.72987 6.17285 7.57002 6.01034C7.41017 5.84783 7.19337 5.75653 6.96731 5.75653ZM9.94205 7.48966C9.71599 7.48966 9.49919 7.58096 9.33934 7.74347C9.17949 7.90599 9.08969 8.1264 9.08969 8.35623V9.2228C9.08969 9.45262 9.17949 9.67304 9.33934 9.83555C9.49919 9.99806 9.71599 10.0894 9.94205 10.0894C10.1681 10.0894 10.3849 9.99806 10.5448 9.83555C10.7046 9.67304 10.7944 9.45262 10.7944 9.2228V8.35623C10.7944 8.1264 10.7046 7.90599 10.5448 7.74347C10.3849 7.58096 10.1681 7.48966 9.94205 7.48966ZM18.115 10.7366C18.3844 10.1591 18.0697 9.49388 17.4692 9.28054C16.8786 9.07068 16.2343 9.37826 15.9607 9.94218C14.9787 11.9664 13.4184 13.6673 11.4758 14.8099C9.54607 15.945 7.34587 16.4664 5.16557 16.3206C4.52877 16.278 3.92699 16.6839 3.80419 17.3102C3.67796 17.954 4.10508 18.5815 4.75894 18.6351C7.4624 18.857 10.2003 18.229 12.5944 16.8209C15.0071 15.4017 16.9327 13.2712 18.115 10.7366Z" fill="#243656"/>
</svg>
