<svg width="85" height="24" viewBox="0 0 85 24" fill="none" xmlns="http://www.w3.org/2000/svg">
<path d="M19.2842 12.7259C19.1129 12.5252 19.0184 12.2672 19.0184 12C19.0184 11.7328 19.1129 11.4748 19.2842 11.2741L20.6522 9.69031C20.803 9.51727 20.8966 9.29954 20.9196 9.06836C20.9427 8.83717 20.8939 8.60442 20.7805 8.40349L18.6429 4.59801C18.5306 4.39731 18.3596 4.23822 18.1542 4.14342C17.9489 4.04863 17.7197 4.02296 17.4994 4.07008L15.4901 4.48802C15.2344 4.54239 14.9683 4.49857 14.7418 4.36484C14.5154 4.23111 14.3444 4.01672 14.261 3.76212L13.6091 1.74939C13.5374 1.53094 13.4008 1.3412 13.2186 1.20699C13.0364 1.07279 12.8178 1.0009 12.5937 1.0015H8.31867C8.08561 0.988977 7.85497 1.05531 7.66199 1.19036C7.469 1.3254 7.32427 1.52175 7.24991 1.74939L6.6514 3.76212C6.56804 4.01672 6.39701 4.23111 6.17058 4.36484C5.94415 4.49857 5.67799 4.54239 5.42232 4.48802L3.35961 4.07008C3.15072 4.0397 2.93777 4.07362 2.74758 4.16757C2.55739 4.26151 2.39847 4.41128 2.29084 4.59801L0.153315 8.40349C0.036991 8.60218 -0.0153121 8.83362 0.0038834 9.06474C0.0230789 9.29586 0.11279 9.51482 0.260192 9.69031L1.61752 11.2741C1.78887 11.4748 1.88336 11.7328 1.88336 12C1.88336 12.2672 1.78887 12.5252 1.61752 12.7259L0.260192 14.3097C0.11279 14.4852 0.0230789 14.7041 0.0038834 14.9353C-0.0153121 15.1664 0.036991 15.3978 0.153315 15.5965L2.29084 19.402C2.40317 19.6027 2.57419 19.7618 2.77954 19.8566C2.98488 19.9514 3.21407 19.977 3.43442 19.9299L5.4437 19.512C5.69936 19.4576 5.96553 19.5014 6.19195 19.6352C6.41838 19.7689 6.58941 19.9833 6.67278 20.2379L7.32472 22.2506C7.39909 22.4783 7.54381 22.6746 7.7368 22.8096C7.92979 22.9447 8.16043 23.011 8.39349 22.9985H12.6685C12.8926 22.9991 13.1112 22.9272 13.2934 22.793C13.4756 22.6588 13.6122 22.4691 13.6839 22.2506L14.3358 20.2379C14.4192 19.9833 14.5902 19.7689 14.8166 19.6352C15.0431 19.5014 15.3092 19.4576 15.5649 19.512L17.5742 19.9299C17.7945 19.977 18.0237 19.9514 18.2291 19.8566C18.4344 19.7618 18.6054 19.6027 18.7178 19.402L20.8553 15.5965C20.9688 15.3956 21.0175 15.1628 20.9944 14.9316C20.9714 14.7005 20.8778 14.4827 20.727 14.3097L19.2842 12.7259ZM17.6917 14.1997L18.5467 15.1896L17.1787 17.6312L15.9176 17.3673C15.1478 17.2053 14.3471 17.3399 13.6674 17.7454C12.9877 18.1509 12.4763 18.7991 12.2304 19.567L11.8242 20.7988H9.08818L8.70343 19.545C8.45746 18.7771 7.94608 18.1289 7.26637 17.7234C6.58666 17.3179 5.78594 17.1834 5.01619 17.3453L3.75505 17.6092L2.36566 15.1786L3.22067 14.1887C3.74645 13.5838 4.03713 12.8006 4.03713 11.989C4.03713 11.1774 3.74645 10.3942 3.22067 9.7893L2.36566 8.79944L3.73368 6.37976L4.99482 6.64373C5.76456 6.80565 6.56529 6.67109 7.245 6.2656C7.92471 5.8601 8.43608 5.2119 8.68205 4.44403L9.08818 3.2012H11.8242L12.2304 4.45503C12.4763 5.2229 12.9877 5.8711 13.6674 6.2766C14.3471 6.68209 15.1478 6.81665 15.9176 6.65473L17.1787 6.39076L18.5467 8.83243L17.6917 9.8223C17.1719 10.4258 16.8848 11.2045 16.8848 12.011C16.8848 12.8175 17.1719 13.5961 17.6917 14.1997ZM10.4562 7.6006C9.61068 7.6006 8.78414 7.85862 8.08111 8.34203C7.37808 8.82544 6.83013 9.51254 6.50656 10.3164C6.183 11.1203 6.09833 12.0049 6.26329 12.8583C6.42824 13.7117 6.8354 14.4956 7.43328 15.1108C8.03116 15.7261 8.7929 16.1451 9.62218 16.3149C10.4515 16.4846 11.311 16.3975 12.0922 16.0645C12.8734 15.7315 13.541 15.1677 14.0108 14.4442C14.4805 13.7207 14.7313 12.8701 14.7313 12C14.7313 10.8332 14.2809 9.7142 13.4791 8.88915C12.6774 8.06411 11.59 7.6006 10.4562 7.6006ZM10.4562 14.1997C10.0334 14.1997 9.62017 14.0707 9.26865 13.829C8.91714 13.5873 8.64317 13.2437 8.48138 12.8418C8.3196 12.4398 8.27727 11.9976 8.35975 11.5709C8.44222 11.1442 8.6458 10.7522 8.94474 10.4446C9.24368 10.1369 9.62455 9.92744 10.0392 9.84257C10.4538 9.75769 10.8836 9.80125 11.2742 9.96774C11.6648 10.1342 11.9986 10.4162 12.2335 10.7779C12.4684 11.1397 12.5937 11.5649 12.5937 12C12.5937 12.5834 12.3685 13.1429 11.9677 13.5554C11.5668 13.9679 11.0231 14.1997 10.4562 14.1997Z" fill="#005EA6"/>
<path d="M32.84 17.18C33.444 17.18 33.982 17.08 34.454 16.88C34.93 16.68 35.306 16.392 35.582 16.016C35.858 15.636 35.996 15.178 35.996 14.642C35.996 14.234 35.92 13.896 35.768 13.628C35.62 13.356 35.432 13.138 35.204 12.974C34.98 12.806 34.75 12.678 34.514 12.59C34.278 12.498 34.072 12.428 33.896 12.38L32.204 11.882C31.98 11.818 31.748 11.736 31.508 11.636C31.272 11.536 31.072 11.398 30.908 11.222C30.748 11.046 30.668 10.812 30.668 10.52C30.668 10.232 30.756 9.976 30.932 9.752C31.108 9.524 31.348 9.346 31.652 9.218C31.956 9.086 32.3 9.022 32.684 9.026C33.288 9.03 33.806 9.2 34.238 9.536C34.674 9.868 34.936 10.314 35.024 10.874L35.948 10.706C35.808 9.93 35.446 9.318 34.862 8.87C34.278 8.418 33.554 8.19 32.69 8.186C32.122 8.182 31.616 8.278 31.172 8.474C30.728 8.666 30.378 8.94 30.122 9.296C29.866 9.648 29.738 10.068 29.738 10.556C29.738 11.136 29.912 11.588 30.26 11.912C30.612 12.232 31.052 12.47 31.58 12.626L33.77 13.28C33.97 13.34 34.172 13.422 34.376 13.526C34.58 13.63 34.75 13.774 34.886 13.958C35.026 14.142 35.096 14.382 35.096 14.678C35.096 15.018 35 15.312 34.808 15.56C34.616 15.808 34.352 16 34.016 16.136C33.684 16.268 33.304 16.334 32.876 16.334C32.232 16.334 31.678 16.176 31.214 15.86C30.75 15.54 30.446 15.1 30.302 14.54L29.402 14.69C29.502 15.202 29.708 15.644 30.02 16.016C30.332 16.388 30.728 16.676 31.208 16.88C31.692 17.08 32.236 17.18 32.84 17.18ZM39.9765 17.18C40.6045 17.18 41.1665 17.026 41.6625 16.718C42.1625 16.41 42.5405 15.972 42.7965 15.404L41.9745 15.086C41.5625 15.918 40.8845 16.334 39.9405 16.334C39.2925 16.334 38.7845 16.132 38.4165 15.728C38.0525 15.324 37.8525 14.75 37.8165 14.006H42.9225C42.9545 12.862 42.7045 11.966 42.1725 11.318C41.6445 10.666 40.9005 10.34 39.9405 10.34C39.3165 10.34 38.7745 10.48 38.3145 10.76C37.8585 11.04 37.5045 11.438 37.2525 11.954C37.0005 12.47 36.8745 13.082 36.8745 13.79C36.8745 14.474 37.0005 15.07 37.2525 15.578C37.5085 16.086 37.8685 16.48 38.3325 16.76C38.8005 17.04 39.3485 17.18 39.9765 17.18ZM39.9645 11.15C41.1845 11.15 41.8625 11.856 41.9985 13.268H37.8345C37.9025 12.584 38.1185 12.06 38.4825 11.696C38.8465 11.332 39.3405 11.15 39.9645 11.15ZM47.7821 17V16.226C47.3181 16.302 46.9281 16.314 46.6121 16.262C46.3001 16.21 46.0721 16.05 45.9281 15.782C45.8521 15.642 45.8101 15.482 45.8021 15.302C45.7981 15.118 45.7961 14.89 45.7961 14.618V11.276H47.7821V10.52H45.7961V8.72H44.9201V10.52H43.5341V11.276H44.9201V14.654C44.9201 14.97 44.9241 15.252 44.9321 15.5C44.9441 15.748 45.0081 15.99 45.1241 16.226C45.2681 16.514 45.4781 16.726 45.7541 16.862C46.0341 16.998 46.3501 17.074 46.7021 17.09C47.0581 17.106 47.4181 17.076 47.7821 17ZM51.8681 17V16.226C51.4041 16.302 51.0141 16.314 50.6981 16.262C50.3861 16.21 50.1581 16.05 50.0141 15.782C49.9381 15.642 49.8961 15.482 49.8881 15.302C49.8841 15.118 49.8821 14.89 49.8821 14.618V11.276H51.8681V10.52H49.8821V8.72H49.0061V10.52H47.6201V11.276H49.0061V14.654C49.0061 14.97 49.0101 15.252 49.0181 15.5C49.0301 15.748 49.0941 15.99 49.2101 16.226C49.3541 16.514 49.5641 16.726 49.8401 16.862C50.1201 16.998 50.4361 17.074 50.7881 17.09C51.1441 17.106 51.5041 17.076 51.8681 17ZM53.2686 9.29H54.1506V8.3H53.2686V9.29ZM53.2686 17H54.1506V10.52H53.2686V17ZM55.9434 17H56.8314V13.544C56.8314 12.812 56.9954 12.238 57.3234 11.822C57.6514 11.406 58.1274 11.198 58.7514 11.198C59.2034 11.198 59.5674 11.308 59.8434 11.528C60.1194 11.744 60.3194 12.04 60.4434 12.416C60.5674 12.792 60.6294 13.218 60.6294 13.694V17H61.5174V13.436C61.5174 13.072 61.4714 12.708 61.3794 12.344C61.2914 11.98 61.1474 11.648 60.9474 11.348C60.7474 11.048 60.4814 10.808 60.1494 10.628C59.8174 10.448 59.4074 10.358 58.9194 10.358C58.4554 10.358 58.0354 10.448 57.6594 10.628C57.2874 10.804 56.9814 11.068 56.7414 11.42V10.52H55.9434V17ZM65.5884 17.18C66.0244 17.18 66.4124 17.096 66.7524 16.928C67.0924 16.76 67.3784 16.528 67.6104 16.232V16.898C67.6144 17.658 67.4644 18.232 67.1604 18.62C66.8564 19.008 66.3524 19.202 65.6484 19.202C65.3084 19.202 64.9744 19.122 64.6464 18.962C64.3184 18.806 64.0664 18.548 63.8904 18.188L63.0924 18.632C63.3684 19.136 63.7384 19.5 64.2024 19.724C64.6704 19.948 65.1524 20.06 65.6484 20.06C66.4404 20.06 67.0724 19.888 67.5444 19.544C68.0164 19.2 68.3104 18.666 68.4264 17.942C68.4544 17.778 68.4724 17.61 68.4804 17.438C68.4924 17.27 68.4984 17.094 68.4984 16.91V10.52H67.7124V11.414C67.4764 11.078 67.1764 10.816 66.8124 10.628C66.4524 10.436 66.0324 10.34 65.5524 10.34C64.9604 10.34 64.4524 10.49 64.0284 10.79C63.6044 11.09 63.2784 11.498 63.0504 12.014C62.8264 12.53 62.7144 13.11 62.7144 13.754C62.7144 14.402 62.8264 14.984 63.0504 15.5C63.2784 16.016 63.6064 16.426 64.0344 16.73C64.4664 17.03 64.9844 17.18 65.5884 17.18ZM65.6784 16.358C65.2304 16.358 64.8544 16.244 64.5504 16.016C64.2504 15.784 64.0244 15.472 63.8724 15.08C63.7244 14.688 63.6504 14.246 63.6504 13.754C63.6504 13.266 63.7244 12.826 63.8724 12.434C64.0204 12.042 64.2444 11.732 64.5444 11.504C64.8484 11.276 65.2324 11.162 65.6964 11.162C66.3724 11.162 66.8764 11.404 67.2084 11.888C67.5444 12.368 67.7124 12.99 67.7124 13.754C67.7124 14.254 67.6384 14.7 67.4904 15.092C67.3424 15.484 67.1184 15.794 66.8184 16.022C66.5184 16.246 66.1384 16.358 65.6784 16.358ZM72.5939 17.174C73.3899 17.174 74.0139 17 74.4659 16.652C74.9219 16.3 75.1499 15.818 75.1499 15.206C75.1499 14.87 75.0779 14.588 74.9339 14.36C74.7939 14.132 74.5519 13.934 74.2079 13.766C73.8679 13.598 73.3999 13.438 72.8039 13.286C72.2959 13.158 71.9039 13.04 71.6279 12.932C71.3559 12.824 71.1679 12.71 71.0639 12.59C70.9599 12.466 70.9079 12.318 70.9079 12.146C70.9079 11.838 71.0519 11.592 71.3399 11.408C71.6279 11.224 72.0019 11.136 72.4619 11.144C72.9499 11.152 73.3519 11.268 73.6679 11.492C73.9839 11.712 74.1739 12.012 74.2379 12.392L75.1379 12.23C75.0939 11.854 74.9539 11.524 74.7179 11.24C74.4819 10.956 74.1699 10.736 73.7819 10.58C73.3979 10.42 72.9619 10.34 72.4739 10.34C71.9859 10.34 71.5559 10.418 71.1839 10.574C70.8159 10.726 70.5279 10.942 70.3199 11.222C70.1159 11.498 70.0139 11.82 70.0139 12.188C70.0139 12.488 70.0819 12.744 70.2179 12.956C70.3579 13.164 70.5959 13.35 70.9319 13.514C71.2679 13.674 71.7279 13.834 72.3119 13.994C72.8599 14.142 73.2699 14.27 73.5419 14.378C73.8179 14.486 74.0019 14.604 74.0939 14.732C74.1859 14.856 74.2319 15.018 74.2319 15.218C74.2319 15.57 74.0899 15.85 73.8059 16.058C73.5219 16.266 73.1339 16.37 72.6419 16.37C72.1379 16.37 71.7139 16.262 71.3699 16.046C71.0259 15.826 70.8079 15.532 70.7159 15.164L69.8159 15.314C69.9279 15.898 70.2279 16.354 70.7159 16.682C71.2079 17.01 71.8339 17.174 72.5939 17.174Z" fill="#005EA6"/>
</svg>
