<svg width="25" height="25" viewBox="0 0 25 25" fill="none" xmlns="http://www.w3.org/2000/svg">
<path d="M18.75 9.375H16.6667C16.3904 9.375 16.1254 9.48475 15.9301 9.6801C15.7347 9.87545 15.625 10.1404 15.625 10.4167C15.625 10.6929 15.7347 10.9579 15.9301 11.1532C16.1254 11.3486 16.3904 11.4583 16.6667 11.4583L18.75 11.4583C19.0263 11.4583 19.2912 11.5681 19.4866 11.7634C19.6819 11.9588 19.7917 12.2237 19.7917 12.5V19.7917C19.7917 20.0679 19.6819 20.3329 19.4866 20.5282C19.2912 20.7236 19.0263 20.8333 18.75 20.8333H6.25C5.97373 20.8333 5.70878 20.7236 5.51343 20.5282C5.31808 20.3329 5.20833 20.0679 5.20833 19.7917L5.20833 12.5C5.20833 12.2237 5.31808 11.9588 5.51343 11.7634C5.70878 11.5681 5.97373 11.4583 6.25 11.4583H8.33333C8.6096 11.4583 8.87455 11.3486 9.0699 11.1532C9.26525 10.9579 9.375 10.6929 9.375 10.4167C9.375 10.1404 9.26525 9.87545 9.0699 9.6801C8.87455 9.48475 8.6096 9.375 8.33333 9.375H6.25C5.4212 9.375 4.62634 9.70424 4.04029 10.2903C3.45424 10.8763 3.125 11.6712 3.125 12.5L3.125 19.7917C3.125 20.6205 3.45424 21.4153 4.04029 22.0014C4.62634 22.5874 5.4212 22.9167 6.25 22.9167H18.75C19.5788 22.9167 20.3737 22.5874 20.9597 22.0014C21.5458 21.4153 21.875 20.6205 21.875 19.7917V12.5C21.875 11.6712 21.5458 10.8763 20.9597 10.2903C20.3737 9.70424 19.5788 9.375 18.75 9.375Z" fill="#0070BA"/>
<path d="M14.5582 13.7606L13.2145 15.1147L13.2145 3.04181C13.2145 2.76554 13.1047 2.50059 12.9094 2.30524C12.714 2.10989 12.4491 2.00014 12.1728 2.00014C11.8966 2.00014 11.6316 2.10989 11.4363 2.30524C11.2409 2.50059 11.1312 2.76554 11.1312 3.04181L11.1312 15.1147L9.78741 13.7606C9.69057 13.6629 9.57536 13.5854 9.44842 13.5325C9.32149 13.4797 9.18533 13.4524 9.04782 13.4524C8.91031 13.4524 8.77416 13.4797 8.64722 13.5325C8.52028 13.5854 8.40508 13.6629 8.30824 13.7606C8.21061 13.8574 8.13311 13.9726 8.08023 14.0995C8.02734 14.2265 8.00012 14.3626 8.00012 14.5001C8.00012 14.6377 8.02734 14.7738 8.08023 14.9007C8.13311 15.0277 8.2106 15.1429 8.30824 15.2397L11.4332 18.3647C11.5301 18.4624 11.6453 18.5399 11.7722 18.5927C11.8992 18.6456 12.0353 18.6729 12.1728 18.6729C12.3103 18.6729 12.4465 18.6456 12.5734 18.5927C12.7004 18.5399 12.8156 18.4624 12.9124 18.3647L16.0374 15.2397C16.2336 15.0436 16.3438 14.7775 16.3438 14.5001C16.3438 14.2227 16.2336 13.9567 16.0374 13.7606C15.8413 13.5644 15.5752 13.4542 15.2978 13.4542C15.0204 13.4542 14.7544 13.5644 14.5582 13.7606Z" fill="#0070BA"/>
</svg>
