<svg width="88" height="24" viewBox="0 0 88 24" fill="none" xmlns="http://www.w3.org/2000/svg">
<path d="M12.3 12.22C12.8336 11.7581 13.2616 11.1869 13.5549 10.545C13.8482 9.90316 14 9.20571 14 8.5C14 7.17392 13.4732 5.90215 12.5355 4.96447C11.5979 4.02678 10.3261 3.5 9 3.5C7.67392 3.5 6.40215 4.02678 5.46447 4.96447C4.52678 5.90215 4 7.17392 4 8.5C3.99999 9.20571 4.1518 9.90316 4.44513 10.545C4.73845 11.1869 5.16642 11.7581 5.7 12.22C4.30014 12.8539 3.11247 13.8775 2.27898 15.1685C1.4455 16.4596 1.00147 17.9633 1 19.5C1 19.7652 1.10536 20.0196 1.29289 20.2071C1.48043 20.3946 1.73478 20.5 2 20.5C2.26522 20.5 2.51957 20.3946 2.70711 20.2071C2.89464 20.0196 3 19.7652 3 19.5C3 17.9087 3.63214 16.3826 4.75736 15.2574C5.88258 14.1321 7.4087 13.5 9 13.5C10.5913 13.5 12.1174 14.1321 13.2426 15.2574C14.3679 16.3826 15 17.9087 15 19.5C15 19.7652 15.1054 20.0196 15.2929 20.2071C15.4804 20.3946 15.7348 20.5 16 20.5C16.2652 20.5 16.5196 20.3946 16.7071 20.2071C16.8946 20.0196 17 19.7652 17 19.5C16.9985 17.9633 16.5545 16.4596 15.721 15.1685C14.8875 13.8775 13.6999 12.8539 12.3 12.22ZM9 11.5C8.40666 11.5 7.82664 11.3241 7.33329 10.9944C6.83994 10.6648 6.45542 10.1962 6.22836 9.64805C6.0013 9.09987 5.94189 8.49667 6.05764 7.91473C6.1734 7.33279 6.45912 6.79824 6.87868 6.37868C7.29824 5.95912 7.83279 5.6734 8.41473 5.55764C8.99667 5.44189 9.59987 5.5013 10.1481 5.72836C10.6962 5.95542 11.1648 6.33994 11.4944 6.83329C11.8241 7.32664 12 7.90666 12 8.5C12 9.29565 11.6839 10.0587 11.1213 10.6213C10.5587 11.1839 9.79565 11.5 9 11.5ZM18.74 11.82C19.38 11.0993 19.798 10.2091 19.9438 9.25634C20.0896 8.30362 19.9569 7.32907 19.5618 6.45C19.1666 5.57093 18.5258 4.8248 17.7165 4.30142C16.9071 3.77805 15.9638 3.49974 15 3.5C14.7348 3.5 14.4804 3.60536 14.2929 3.79289C14.1054 3.98043 14 4.23478 14 4.5C14 4.76522 14.1054 5.01957 14.2929 5.20711C14.4804 5.39464 14.7348 5.5 15 5.5C15.7956 5.5 16.5587 5.81607 17.1213 6.37868C17.6839 6.94129 18 7.70435 18 8.5C17.9986 9.02524 17.8593 9.5409 17.5961 9.99542C17.3328 10.4499 16.9549 10.8274 16.5 11.09C16.3517 11.1755 16.2279 11.2977 16.1404 11.4447C16.0528 11.5918 16.0045 11.7589 16 11.93C15.9958 12.0998 16.0349 12.2678 16.1137 12.4183C16.1924 12.5687 16.3081 12.6967 16.45 12.79L16.84 13.05L16.97 13.12C18.1754 13.6917 19.1923 14.596 19.901 15.7263C20.6096 16.8566 20.9805 18.1659 20.97 19.5C20.97 19.7652 21.0754 20.0196 21.2629 20.2071C21.4504 20.3946 21.7048 20.5 21.97 20.5C22.2352 20.5 22.4896 20.3946 22.6771 20.2071C22.8646 20.0196 22.97 19.7652 22.97 19.5C22.9782 17.9654 22.5938 16.4543 21.8535 15.1101C21.1131 13.7659 20.0413 12.6333 18.74 11.82Z" fill="#0070BA"/>
<path d="M40.5875 14.325C40.4292 14.8583 40.1875 15.3333 39.8625 15.75C39.4875 16.225 39.0208 16.5833 38.4625 16.825C37.9125 17.0667 37.3167 17.1875 36.675 17.1875C36.025 17.1875 35.425 17.0667 34.875 16.825C34.325 16.575 33.8667 16.2167 33.5 15.75C32.8333 14.9083 32.5 13.85 32.5 12.575C32.5 11.2 32.8333 10.0917 33.5 9.25C33.8667 8.775 34.325 8.41667 34.875 8.175C35.425 7.93333 36.025 7.8125 36.675 7.8125C37.325 7.8125 37.9292 7.9375 38.4875 8.1875C39.0458 8.42917 39.5042 8.78333 39.8625 9.25C40.2375 9.73333 40.5 10.2833 40.65 10.9L39.6 11.075C39.4917 10.6083 39.3125 10.2083 39.0625 9.875C38.7875 9.51667 38.4333 9.24583 38 9.0625C37.575 8.87917 37.1167 8.7875 36.625 8.7875C36.1667 8.7875 35.7292 8.88333 35.3125 9.075C34.9042 9.25833 34.5708 9.525 34.3125 9.875C33.8292 10.5 33.5875 11.375 33.5875 12.5C33.5875 13.6083 33.8292 14.4875 34.3125 15.1375C34.5792 15.4875 34.925 15.7542 35.35 15.9375C35.7833 16.1208 36.2417 16.2125 36.725 16.2125C37.1833 16.2125 37.6208 16.1208 38.0375 15.9375C38.4542 15.7458 38.7958 15.4792 39.0625 15.1375C39.2875 14.8208 39.4583 14.4542 39.575 14.0375L40.5875 14.325ZM44.8773 17.1875C44.3773 17.1875 43.9148 17.0958 43.4898 16.9125C43.0648 16.7208 42.7065 16.4458 42.4148 16.0875C41.9065 15.4458 41.6523 14.6208 41.6523 13.6125C41.6523 12.6125 41.9065 11.7958 42.4148 11.1625C42.6982 10.8125 43.0565 10.5417 43.4898 10.35C43.9232 10.1583 44.3857 10.0625 44.8773 10.0625C45.369 10.0625 45.8273 10.1583 46.2523 10.35C46.6857 10.5333 47.044 10.8042 47.3273 11.1625C47.844 11.7875 48.1023 12.6042 48.1023 13.6125C48.1023 14.6125 47.844 15.4375 47.3273 16.0875C47.044 16.4542 46.6898 16.7292 46.2648 16.9125C45.8482 17.0958 45.3857 17.1875 44.8773 17.1875ZM46.5273 15.4625C46.8607 15.0208 47.0273 14.4042 47.0273 13.6125C47.0273 12.8292 46.8607 12.2167 46.5273 11.775C46.344 11.5333 46.1065 11.35 45.8148 11.225C45.5232 11.0917 45.2107 11.025 44.8773 11.025C44.544 11.025 44.2315 11.0917 43.9398 11.225C43.6482 11.35 43.4148 11.5333 43.2398 11.775C42.8982 12.2167 42.7273 12.8292 42.7273 13.6125C42.7273 14.4042 42.8982 15.0208 43.2398 15.4625C43.4148 15.7042 43.6482 15.8917 43.9398 16.025C44.2315 16.1583 44.544 16.225 44.8773 16.225C45.2107 16.225 45.5232 16.1583 45.8148 16.025C46.1065 15.8917 46.344 15.7042 46.5273 15.4625ZM54.268 10.65C54.693 10.975 54.9805 11.3833 55.1305 11.875C55.2805 12.3667 55.3513 12.9667 55.343 13.675V17H54.318V13.675C54.318 13.1167 54.268 12.6583 54.168 12.3C54.068 11.9417 53.868 11.65 53.568 11.425C53.243 11.1917 52.8596 11.075 52.418 11.075C52.1846 11.075 51.9596 11.1083 51.743 11.175C51.5263 11.2417 51.3388 11.3458 51.1805 11.4875C50.8721 11.7542 50.6721 12.1292 50.5805 12.6125C50.5305 12.8292 50.5055 13.1375 50.5055 13.5375V17H49.4805V10.25H50.393V11.0125L50.6055 10.7875C50.8721 10.5542 51.1721 10.3792 51.5055 10.2625C51.8471 10.1458 52.193 10.0875 52.543 10.0875C52.8513 10.0875 53.1513 10.1375 53.443 10.2375C53.743 10.3292 54.018 10.4667 54.268 10.65ZM58.6148 14.45C58.6148 14.8083 58.619 15.0667 58.6273 15.225C58.644 15.375 58.6898 15.5125 58.7648 15.6375C58.8315 15.7875 58.9357 15.9042 59.0773 15.9875C59.219 16.0708 59.3773 16.1208 59.5523 16.1375C59.7357 16.1542 59.8732 16.1625 59.9648 16.1625C60.1982 16.1625 60.4315 16.1417 60.6648 16.1V17C60.3815 17.0667 60.0773 17.1 59.7523 17.1C59.5107 17.1 59.3107 17.0833 59.1523 17.05C58.5107 16.9333 58.0732 16.6333 57.8398 16.15C57.7315 15.9333 57.6648 15.7083 57.6398 15.475C57.6148 15.2333 57.6023 14.9083 57.6023 14.5V11.1H56.0898V10.25H57.6023V8.375H58.6148V10.25H60.6648V11.1H58.6148V14.45ZM62.0727 11.5125C62.1477 11.3792 62.2143 11.2792 62.2727 11.2125C62.8393 10.4542 63.6643 10.075 64.7477 10.075C65.3893 10.075 65.9477 10.2 66.4227 10.45C66.8977 10.6917 67.2518 11.0667 67.4852 11.575C67.6602 11.9333 67.7477 12.3333 67.7477 12.775V17H66.8477V15.6625C66.731 15.8958 66.5643 16.1125 66.3477 16.3125C66.131 16.5125 65.9018 16.6708 65.6602 16.7875C65.0852 17.0708 64.506 17.1958 63.9227 17.1625C63.581 17.1458 63.2518 17.0583 62.9352 16.9C62.6185 16.7333 62.3685 16.5208 62.1852 16.2625C62.0518 16.0542 61.9518 15.8542 61.8852 15.6625C61.8185 15.4708 61.7852 15.2583 61.7852 15.025C61.7852 14.675 61.8727 14.35 62.0477 14.05C62.2227 13.75 62.4643 13.5042 62.7727 13.3125C63.056 13.1542 63.3435 13.0417 63.6352 12.975C63.9268 12.9083 64.3435 12.8333 64.8852 12.75L65.2977 12.6875L66.6977 12.5C66.631 12.0417 66.4393 11.6917 66.1227 11.45C65.7893 11.175 65.3268 11.0375 64.7352 11.0375C64.4102 11.0375 64.1102 11.0958 63.8352 11.2125C63.5602 11.3208 63.3393 11.4917 63.1727 11.725C63.131 11.775 63.0768 11.85 63.0102 11.95L62.0727 11.5125ZM65.0977 13.625C64.6143 13.7 64.2185 13.7792 63.9102 13.8625C63.6018 13.9458 63.3393 14.0792 63.1227 14.2625C62.9143 14.4375 62.8102 14.6833 62.8102 15C62.8102 15.3083 62.931 15.5833 63.1727 15.825C63.4143 16.0583 63.7102 16.1917 64.0602 16.225C64.1018 16.2333 64.1685 16.2375 64.2602 16.2375C64.7018 16.2375 65.1352 16.1167 65.5602 15.875C65.9852 15.6333 66.2893 15.3125 66.4727 14.9125C66.5893 14.6625 66.6602 14.4292 66.6852 14.2125C66.7185 13.9958 66.7352 13.7125 66.7352 13.3625L65.0977 13.625ZM74.0797 12.1625C74.0464 12.0875 73.9714 11.9625 73.8547 11.7875C73.6714 11.5375 73.4339 11.35 73.1422 11.225C72.8589 11.0917 72.5464 11.025 72.2047 11.025C71.8714 11.025 71.5589 11.0917 71.2672 11.225C70.9839 11.35 70.7547 11.5375 70.5797 11.7875C70.2547 12.2125 70.0839 12.825 70.0672 13.625C70.0839 14.425 70.2547 15.0375 70.5797 15.4625C70.7547 15.7042 70.988 15.8917 71.2797 16.025C71.5714 16.15 71.8797 16.2125 72.2047 16.2125C72.5464 16.2125 72.8589 16.15 73.1422 16.025C73.4339 15.8917 73.6714 15.7042 73.8547 15.4625C73.938 15.3375 74.0089 15.2167 74.0672 15.1L75.0297 15.525C74.8797 15.775 74.7589 15.9583 74.6672 16.075C74.3755 16.4417 74.0172 16.7208 73.5922 16.9125C73.1672 17.0958 72.7047 17.1875 72.2047 17.1875C71.713 17.1875 71.2505 17.0958 70.8172 16.9125C70.3922 16.7208 70.038 16.4417 69.7547 16.075C69.263 15.4583 69.0089 14.6417 68.9922 13.625C69.0089 12.6083 69.263 11.7875 69.7547 11.1625C70.0547 10.7875 70.413 10.5125 70.8297 10.3375C71.2464 10.1542 71.7047 10.0625 72.2047 10.0625C72.7047 10.0625 73.1672 10.1583 73.5922 10.35C74.0172 10.5333 74.3755 10.8042 74.6672 11.1625C74.8255 11.3792 74.9464 11.575 75.0297 11.75L74.0797 12.1625ZM78.1148 14.45C78.1148 14.8083 78.119 15.0667 78.1273 15.225C78.144 15.375 78.1898 15.5125 78.2648 15.6375C78.3315 15.7875 78.4357 15.9042 78.5773 15.9875C78.719 16.0708 78.8773 16.1208 79.0523 16.1375C79.2357 16.1542 79.3732 16.1625 79.4648 16.1625C79.6982 16.1625 79.9315 16.1417 80.1648 16.1V17C79.8815 17.0667 79.5773 17.1 79.2523 17.1C79.0107 17.1 78.8107 17.0833 78.6523 17.05C78.0107 16.9333 77.5732 16.6333 77.3398 16.15C77.2315 15.9333 77.1648 15.7083 77.1398 15.475C77.1148 15.2333 77.1023 14.9083 77.1023 14.5V11.1H75.5898V10.25H77.1023V8.375H78.1148V10.25H80.1648V11.1H78.1148V14.45ZM85.9352 12.2625C85.8602 12.0542 85.7477 11.8625 85.5977 11.6875C85.4477 11.5042 85.2768 11.3625 85.0852 11.2625C84.7935 11.1125 84.431 11.0375 83.9977 11.0375C83.6477 11.0375 83.3435 11.1 83.0852 11.225C82.9352 11.3083 82.8143 11.4125 82.7227 11.5375C82.631 11.6625 82.5852 11.7917 82.5852 11.925C82.5852 12.125 82.656 12.2958 82.7977 12.4375C82.9477 12.5875 83.231 12.7208 83.6477 12.8375C83.8977 12.9125 84.3268 13.0292 84.9352 13.1875C85.2185 13.2625 85.4602 13.3458 85.6602 13.4375C85.8685 13.5292 86.0643 13.6542 86.2477 13.8125C86.7227 14.1958 86.9602 14.65 86.9602 15.175C86.9602 15.4917 86.881 15.7875 86.7227 16.0625C86.5643 16.3375 86.3518 16.5625 86.0852 16.7375C85.6352 17.0292 85.006 17.175 84.1977 17.175C83.231 17.175 82.4768 16.8875 81.9352 16.3125C81.7518 16.1042 81.5977 15.8625 81.4727 15.5875C81.356 15.3125 81.2727 15.0458 81.2227 14.7875L82.2102 14.55C82.2352 14.75 82.2852 14.95 82.3602 15.15C82.4435 15.3417 82.5477 15.5083 82.6727 15.65C83.0143 16.025 83.5185 16.2125 84.1852 16.2125C84.4352 16.2125 84.681 16.1875 84.9227 16.1375C85.1727 16.0792 85.3727 16 85.5227 15.9C85.7393 15.7417 85.8685 15.5208 85.9102 15.2375C85.9352 14.9625 85.8393 14.7375 85.6227 14.5625C85.5227 14.4708 85.4018 14.3958 85.2602 14.3375C85.1185 14.2708 84.9143 14.1958 84.6477 14.1125C84.456 14.0542 84.0643 13.9458 83.4727 13.7875C83.1727 13.7042 82.9185 13.6208 82.7102 13.5375C82.5102 13.4542 82.3227 13.3417 82.1477 13.2C81.9477 13.0417 81.7935 12.8542 81.6852 12.6375C81.5852 12.4125 81.5352 12.1792 81.5352 11.9375C81.5352 11.5958 81.6393 11.2792 81.8477 10.9875C82.0643 10.6958 82.3352 10.475 82.6602 10.325C83.0518 10.15 83.4977 10.0625 83.9977 10.0625C84.581 10.0625 85.0935 10.1708 85.5352 10.3875C85.8602 10.5542 86.1477 10.7875 86.3977 11.0875C86.656 11.3875 86.8352 11.7 86.9352 12.025L85.9352 12.2625Z" fill="#005EA6"/>
</svg>
