<svg width="69" height="24" viewBox="0 0 69 24" fill="none" xmlns="http://www.w3.org/2000/svg">
<path d="M19 7H18V6C18 5.20435 17.6839 4.44129 17.1213 3.87868C16.5587 3.31607 15.7956 3 15 3H5C4.20435 3 3.44129 3.31607 2.87868 3.87868C2.31607 4.44129 2 5.20435 2 6V18C2 18.7956 2.31607 19.5587 2.87868 20.1213C3.44129 20.6839 4.20435 21 5 21H19C19.7956 21 20.5587 20.6839 21.1213 20.1213C21.6839 19.5587 22 18.7956 22 18V10C22 9.20435 21.6839 8.44129 21.1213 7.87868C20.5587 7.31607 19.7956 7 19 7ZM5 5H15C15.2652 5 15.5196 5.10536 15.7071 5.29289C15.8946 5.48043 16 5.73478 16 6V7H5C4.73478 7 4.48043 6.89464 4.29289 6.70711C4.10536 6.51957 4 6.26522 4 6C4 5.73478 4.10536 5.48043 4.29289 5.29289C4.48043 5.10536 4.73478 5 5 5ZM20 15H19C18.7348 15 18.4804 14.8946 18.2929 14.7071C18.1054 14.5196 18 14.2652 18 14C18 13.7348 18.1054 13.4804 18.2929 13.2929C18.4804 13.1054 18.7348 13 19 13H20V15ZM20 11H19C18.2044 11 17.4413 11.3161 16.8787 11.8787C16.3161 12.4413 16 13.2044 16 14C16 14.7956 16.3161 15.5587 16.8787 16.1213C17.4413 16.6839 18.2044 17 19 17H20V18C20 18.2652 19.8946 18.5196 19.7071 18.7071C19.5196 18.8946 19.2652 19 19 19H5C4.73478 19 4.48043 18.8946 4.29289 18.7071C4.10536 18.5196 4 18.2652 4 18V8.83C4.32127 8.94302 4.65943 9.00051 5 9H19C19.2652 9 19.5196 9.10536 19.7071 9.29289C19.8946 9.48043 20 9.73478 20 10V11Z" fill="#0070BA"/>
<path d="M43.5875 7.5L40.975 16.5H39.9625L37.8875 9.3375L35.8125 16.5H34.8L32.2 7.5H33.2625L35.3125 14.725L37.35 7.5H38.4125L40.4625 14.725L42.5125 7.5H43.5875ZM44.1898 11.0125C44.2648 10.8792 44.3315 10.7792 44.3898 10.7125C44.9565 9.95417 45.7815 9.575 46.8648 9.575C47.5065 9.575 48.0648 9.7 48.5398 9.95C49.0148 10.1917 49.369 10.5667 49.6023 11.075C49.7773 11.4333 49.8648 11.8333 49.8648 12.275V16.5H48.9648V15.1625C48.8482 15.3958 48.6815 15.6125 48.4648 15.8125C48.2482 16.0125 48.019 16.1708 47.7773 16.2875C47.2023 16.5708 46.6232 16.6958 46.0398 16.6625C45.6982 16.6458 45.369 16.5583 45.0523 16.4C44.7357 16.2333 44.4857 16.0208 44.3023 15.7625C44.169 15.5542 44.069 15.3542 44.0023 15.1625C43.9357 14.9708 43.9023 14.7583 43.9023 14.525C43.9023 14.175 43.9898 13.85 44.1648 13.55C44.3398 13.25 44.5815 13.0042 44.8898 12.8125C45.1732 12.6542 45.4607 12.5417 45.7523 12.475C46.044 12.4083 46.4607 12.3333 47.0023 12.25L47.4148 12.1875L48.8148 12C48.7482 11.5417 48.5565 11.1917 48.2398 10.95C47.9065 10.675 47.444 10.5375 46.8523 10.5375C46.5273 10.5375 46.2273 10.5958 45.9523 10.7125C45.6773 10.8208 45.4565 10.9917 45.2898 11.225C45.2482 11.275 45.194 11.35 45.1273 11.45L44.1898 11.0125ZM47.2148 13.125C46.7315 13.2 46.3357 13.2792 46.0273 13.3625C45.719 13.4458 45.4565 13.5792 45.2398 13.7625C45.0315 13.9375 44.9273 14.1833 44.9273 14.5C44.9273 14.8083 45.0482 15.0833 45.2898 15.325C45.5315 15.5583 45.8273 15.6917 46.1773 15.725C46.219 15.7333 46.2857 15.7375 46.3773 15.7375C46.819 15.7375 47.2523 15.6167 47.6773 15.375C48.1023 15.1333 48.4065 14.8125 48.5898 14.4125C48.7065 14.1625 48.7773 13.9292 48.8023 13.7125C48.8357 13.4958 48.8523 13.2125 48.8523 12.8625L47.2148 13.125ZM52.4969 16.5V7.3125H51.4844V16.5H52.4969ZM55.2625 16.5V7.3125H54.25V16.5H55.2625ZM57.7406 13.4C57.7656 14.05 57.9281 14.5708 58.2281 14.9625C58.4031 15.2042 58.6365 15.3917 58.9281 15.525C59.2198 15.6583 59.5323 15.725 59.8656 15.725C60.199 15.725 60.5073 15.6583 60.7906 15.525C61.0823 15.3917 61.3198 15.2042 61.5031 14.9625C61.5781 14.8625 61.649 14.7417 61.7156 14.6L62.7156 15.0375C62.599 15.2542 62.474 15.4417 62.3406 15.6C62.0573 15.95 61.7031 16.2208 61.2781 16.4125C60.8615 16.5958 60.4198 16.6875 59.9531 16.6875C59.4365 16.6875 58.9531 16.5958 58.5031 16.4125C58.0615 16.2292 57.6948 15.9542 57.4031 15.5875C56.8948 14.9458 56.6406 14.125 56.6406 13.125C56.6573 12.1083 56.9115 11.2875 57.4031 10.6625C57.6948 10.3042 58.0531 10.0333 58.4781 9.85C58.9031 9.65833 59.3656 9.5625 59.8656 9.5625C60.3656 9.5625 60.824 9.65833 61.2406 9.85C61.6656 10.0333 62.024 10.3042 62.3156 10.6625C62.824 11.3042 63.0781 12.125 63.0781 13.125C63.0781 13.25 63.074 13.3417 63.0656 13.4H57.7406ZM59.8656 10.525C59.5323 10.525 59.2198 10.5917 58.9281 10.725C58.6365 10.8583 58.4031 11.0458 58.2281 11.2875C57.9781 11.6292 57.824 12.05 57.7656 12.55H61.9656C61.9073 12.05 61.7531 11.6292 61.5031 11.2875C61.3198 11.0458 61.0823 10.8583 60.7906 10.725C60.5073 10.5917 60.199 10.525 59.8656 10.525ZM66.232 13.95C66.232 14.3083 66.2362 14.5667 66.2445 14.725C66.2612 14.875 66.307 15.0125 66.382 15.1375C66.4487 15.2875 66.5529 15.4042 66.6945 15.4875C66.8362 15.5708 66.9945 15.6208 67.1695 15.6375C67.3529 15.6542 67.4904 15.6625 67.582 15.6625C67.8154 15.6625 68.0487 15.6417 68.282 15.6V16.5C67.9987 16.5667 67.6945 16.6 67.3695 16.6C67.1279 16.6 66.9279 16.5833 66.7695 16.55C66.1279 16.4333 65.6904 16.1333 65.457 15.65C65.3487 15.4333 65.282 15.2083 65.257 14.975C65.232 14.7333 65.2195 14.4083 65.2195 14V10.6H63.707V9.75H65.2195V7.875H66.232V9.75H68.282V10.6H66.232V13.95Z" fill="#005EA6"/>
</svg>
