<svg width="375" height="192" viewBox="0 0 375 192" fill="none" xmlns="http://www.w3.org/2000/svg">
<g clip-path="url(#clip0)">
<path d="M0 0H375V192H0V0Z" fill="url(#paint0_radial)"/>
<g opacity="0.15">
<path fill-rule="evenodd" clip-rule="evenodd" d="M85.4719 18.075C68.6811 -1.05472 38.3483 -9.25 -0.461069 -9.25H-113.12C-121.05 -9.25 -127.803 -3.48008 -129.039 4.35343L-175.949 301.794C-176.876 307.664 -172.338 312.969 -166.398 312.969H-96.8496L-101.649 343.405C-102.458 348.54 -98.4925 353.184 -93.2943 353.184H-34.6741C-27.7332 353.184 -21.8262 348.134 -20.7445 341.283L-20.1685 338.304L-9.12601 268.282L-8.41346 264.413C-7.33173 257.558 -1.42466 252.512 5.51244 252.512H14.2807C71.0735 252.512 115.543 229.439 128.534 162.718C133.965 134.839 131.159 111.568 116.802 95.2066C112.456 90.2599 107.055 86.166 100.753 82.8288C105.176 54.6363 100.723 35.4512 85.4719 18.075Z" fill="white"/>
<path fill-rule="evenodd" clip-rule="evenodd" d="M100.753 82.8374C105.176 54.6423 100.723 35.4554 85.472 18.0776C68.6811 -1.05395 38.3484 -9.25 -0.461057 -9.25H-113.12C-121.05 -9.25 -127.803 -3.47954 -129.039 4.35471L-175.949 301.823C-176.876 307.694 -172.338 312.999 -166.398 312.999H-96.8496L-79.3794 202.219L-79.9221 205.693C-78.6854 197.859 -71.9882 192.085 -64.058 192.085H-31.0006C33.9181 192.085 84.7483 165.71 99.6009 89.4349C100.04 87.1791 100.417 84.9898 100.753 82.8374Z" fill="white"/>
<path fill-rule="evenodd" clip-rule="evenodd" d="M-60.6134 83.214C-59.8677 78.4994 -56.844 74.6414 -52.7718 72.6884C-50.9185 71.8023 -48.851 71.3076 -46.6838 71.3076H41.6231C52.086 71.3076 61.84 71.9943 70.756 73.4304C73.3071 73.8402 75.7844 74.3128 78.1952 74.8481C80.6023 75.3798 82.943 75.9779 85.2062 76.6424C86.3396 76.971 87.4508 77.318 88.5473 77.6835C92.926 79.1345 97.0018 80.8512 100.753 82.8374C105.176 54.6423 100.723 35.4554 85.472 18.0776C68.6811 -1.05395 38.3484 -9.25 -0.461057 -9.25H-113.12C-121.05 -9.25 -127.803 -3.47954 -129.039 4.35471L-175.949 301.823C-176.876 307.694 -172.338 312.999 -166.398 312.999H-96.8496L-60.6134 83.214Z" fill="white"/>
</g>
</g>
<defs>
<radialGradient id="paint0_radial" cx="0" cy="0" r="1" gradientUnits="userSpaceOnUse" gradientTransform="translate(-83.5 -52.5714) rotate(24.9071) scale(505.517 521.523)">
<stop stop-color="#0070BA"/>
<stop offset="1" stop-color="#1546A0"/>
</radialGradient>
<clipPath id="clip0">
<rect width="375" height="192" fill="white"/>
</clipPath>
</defs>
</svg>
